<?xml version="1.0" encoding="iso-8859-1"?>
<!-- Generator: Adobe Illustrator 19.0.0, SVG Export Plug-In . SVG Version: 6.00 Build 0)  -->
<svg xmlns="http://www.w3.org/2000/svg" xmlns:xlink="http://www.w3.org/1999/xlink" version="1.1" id="Capa_1" x="0px" y="0px" viewBox="0 0 512 512" style="enable-background:new 0 0 512 512;" xml:space="preserve" width="512px" height="512px">
<g>
	<g>
		<path d="M256,241.951c-74.443,0-135,60.557-135,135s60.557,135,135,135s135-60.556,135-135    C391,302.508,330.443,241.951,256,241.951z M256,361.951c24.814,0,45,20.186,45,45c0,18.105-10.679,35.381-30,42.242v17.758    c0,8.291-6.709,15-15,15c-8.291,0-15-6.709-15-15v-17.717c-7.784-2.62-15.331-7.015-22.104-13.572    c-5.947-5.757-6.094-15.249-0.322-21.211c5.742-5.947,15.264-6.079,21.211-0.322c7.266,7.046,15.337,9.434,22.046,6.65    c5.566-2.358,9.17-7.778,9.17-13.828c0-8.276-6.724-15-15-15c-24.814,0-45-20.186-45-45c0-18.853,11.895-35.845,29.604-42.29    c0.13-0.048,0.266-0.027,0.396-0.073v-17.637c0-8.291,6.709-15,15-15c8.291,0,15,6.709,15,15v17.443    c9.891,3.336,19.336,9.955,27.437,19.618c5.332,6.343,4.512,15.806-1.846,21.123c-6.299,5.332-15.806,4.497-21.123-1.846    c-7.939-9.434-16.919-13.257-24.595-10.444c-5.903,2.153-9.873,7.822-9.873,14.106C241,355.228,247.724,361.951,256,361.951z" fill="#8a9096"/>
	</g>
</g>
<g>
	<g>
		<path d="M512,421.951c0-16.569-13.431-30-30-30c16.569,0,30-13.432,30-30c0-16.569-13.431-30-30-30h-67.396    c4.072,14.328,6.396,29.385,6.396,45c0,55.798-27.911,105.123-70.43,135H482c16.569,0,30-13.433,30-30c0-16.569-13.431-30-30-30    C498.569,451.951,512,438.518,512,421.951z" fill="#CDD6E0"/>
	</g>
</g>
<g>
	<g>
		<path d="M91,376.951c0-15.615,2.324-30.672,6.396-45H30c-16.569,0-30,13.431-30,30c0,16.567,13.431,30,30,30    c-16.569,0-30,13.431-30,30c0,16.567,13.431,30,30,30c-16.569,0-30,13.431-30,30c0,16.567,13.431,30,30,30h131.43    C118.911,482.074,91,432.749,91,376.951z" fill="#CDD6E0"/>
	</g>
</g>
<g>
	<g>
		<path d="M296.606,35.346l-30-31c-6.229-6.229-16.003-5.208-21.211,0l-30,31c-5.859,5.859-5.859,15.352,0,21.211    c5.859,5.859,15.352,5.859,21.211,0L241,52.162v160.549c4.948-0.448,9.937-0.76,15-0.76s10.052,0.311,15,0.76V52.162l4.395,4.395    c5.859,5.859,15.352,5.859,21.211,0S302.465,41.205,296.606,35.346z" fill="#f98686"/>
	</g>
</g>
<g>
	<g>
		<path d="M176.607,125.346l-30-30c-6.366-6.365-16.355-4.858-21.212,0l-30,30c-5.859,5.859-5.859,15.352,0,21.211    s15.352,5.859,21.211,0l4.395-4.395v140.219c8.538-12.149,18.58-23.165,30-32.609v-107.61l4.395,4.395    c5.859,5.859,15.352,5.859,21.211,0S182.466,131.205,176.607,125.346z" fill="#FFCDCD"/>
	</g>
</g>
<g>
	<g>
		<path d="M416.606,125.346l-30-30c-6.246-6.246-16.038-5.173-21.211,0l-30,30c-5.859,5.859-5.859,15.352,0,21.211    s15.352,5.859,21.211,0l4.395-4.395v107.609c11.419,9.445,21.461,20.461,29.999,32.61V142.162l4.395,4.395    c5.859,5.859,15.352,5.859,21.211,0S422.465,131.205,416.606,125.346z" fill="#FFCDCD"/>
	</g>
</g>
<g>
</g>
<g>
</g>
<g>
</g>
<g>
</g>
<g>
</g>
<g>
</g>
<g>
</g>
<g>
</g>
<g>
</g>
<g>
</g>
<g>
</g>
<g>
</g>
<g>
</g>
<g>
</g>
<g>
</g>
</svg>
