<?xml version="1.0" encoding="iso-8859-1"?>
<!-- Generator: Adobe Illustrator 19.0.0, SVG Export Plug-In . SVG Version: 6.00 Build 0)  -->
<svg version="1.1" id="Capa_1" xmlns="http://www.w3.org/2000/svg" xmlns:xlink="http://www.w3.org/1999/xlink" x="0px" y="0px"
	 viewBox="0 0 512 512" style="enable-background:new 0 0 512 512;" xml:space="preserve">
<path style="fill:#ACB3BA;" d="M373.492,435.682c0,0,44.125-53.469,66.727-77.72c12.068-12.949,17.71-30.322,7.408-44.716
	s-32.561-20.275-44.716-7.408c-23.16,24.516-77.494,89.78-77.494,89.78L373.492,435.682z"/>
<path style="fill:#CDD6E0;" d="M502.714,310.241c-10.302-14.394-32.561-20.275-44.716-7.408
	c-23.16,24.516-77.494,89.78-77.494,89.78l-152.238,16.025v-64.1c0,0-32.05-32.05-88.138-32.05
	c-75.975,0-122.181,35.722-133.487,45.581c-1.739,1.515-2.726,3.715-2.726,6.021v76.598c0,4.425,3.588,8.013,8.013,8.013H116.09
	l148.842,62.67c2.155,0.907,4.6,0.828,6.692-0.218l156.955-78.477c0,0,44.125-53.469,66.727-77.72
	C507.375,342.008,513.017,324.635,502.714,310.241z"/>
<path style="fill:#ACB3BA;" d="M495.306,323.646c-22.601,24.251-82.752,93.005-82.752,93.005l-144.226,64.839l-152.238-64.1H3.914
	v23.298c0,4.425,3.588,8.013,8.013,8.013H116.09l148.842,62.67c2.155,0.907,4.6,0.828,6.692-0.218l156.955-78.477
	c0,0,44.125-53.469,66.727-77.72c11.632-12.48,17.287-29.071,8.456-43.143C501.596,315.999,498.706,319.999,495.306,323.646z"/>
<path style="fill:#CDD6E0;" d="M329.324,370.023c0,0-133.108-57.534-189.196-57.534c-75.975,0-122.181,35.722-133.487,45.581
	c-1.739,1.515-2.726,3.715-2.726,6.021v44.548h224.351l81.963,22.574c16.897,5.273,34.87-4.15,40.143-21.048
	C355.645,393.268,346.221,375.296,329.324,370.023z"/>
<path style="fill:#ACB3BA;" d="M310.229,407.176l-57.535-15.846c-13.695-3.772-27.949,3.833-32.441,17.31l0,0l89.976,22.574
	c16.897,5.273,34.87-4.151,40.143-21.048c2.3-7.369,1.803-14.941-0.888-21.577C343.304,403.921,326.285,412.186,310.229,407.176z"/>
<path style="fill:#AED45B;" d="M436.093,157.471c-1.163-3.145-4.161-5.233-7.515-5.233h-64.1V8.013c0-4.425-3.588-8.013-8.013-8.013
	H164.165c-4.425,0-8.013,3.588-8.013,8.013v144.226h-64.1c-3.213,0-6.19,1.994-7.411,4.966c-1.299,3.163-0.401,6.905,2.195,9.13
	L255.1,310.56c1.5,1.286,3.358,1.929,5.215,1.929c1.857,0,3.714-0.643,5.214-1.929l168.263-144.226
	C436.339,164.153,437.257,160.615,436.093,157.471z"/>
<path style="fill:#9AC932;" d="M180.19,200.313L180.178,8.013c0-4.425,3.588-8.013,8.013-8.013h-24.026
	c-4.425,0-8.013,3.588-8.013,8.013v144.226h-64.1c-3.213,0-6.19,1.994-7.411,4.966c-1.299,3.163-0.401,6.905,2.195,9.13
	L255.1,310.56c1.5,1.286,3.358,1.929,5.215,1.929c1.857,0,3.714-0.643,5.214-1.929l20.476-17.55L180.19,200.313z"/>
<g>
	<path style="fill:#FFFFFF;" d="M212.24,151.737c-6.568,0-9.94-8.196-5.311-12.823l96.149-96.15c2.935-2.934,7.69-2.934,10.624,0
		c2.934,2.934,2.934,7.69,0,10.623l-96.15,96.15C216.085,151.004,214.163,151.737,212.24,151.737z"/>
	<path style="fill:#FFFFFF;" d="M300.378,151.737c-12.978,0-23.537-10.559-23.537-23.537s10.559-23.537,23.537-23.537
		s23.537,10.559,23.537,23.537C323.915,141.179,313.356,151.737,300.378,151.737z M300.378,119.687
		c-4.694,0-8.513,3.819-8.513,8.513c0,4.694,3.819,8.513,8.513,8.513c4.694,0,8.513-3.819,8.513-8.513
		C308.891,123.506,305.072,119.687,300.378,119.687z"/>
	<path style="fill:#FFFFFF;" d="M220.253,87.637c-12.978,0-23.537-10.559-23.537-23.537s10.559-23.537,23.537-23.537
		c12.978,0,23.537,10.559,23.537,23.537S233.231,87.637,220.253,87.637z M220.253,55.587c-4.694,0-8.513,3.819-8.513,8.513
		s3.819,8.513,8.513,8.513c4.694,0,8.513-3.819,8.513-8.513S224.947,55.587,220.253,55.587z"/>
</g>
<g>
</g>
<g>
</g>
<g>
</g>
<g>
</g>
<g>
</g>
<g>
</g>
<g>
</g>
<g>
</g>
<g>
</g>
<g>
</g>
<g>
</g>
<g>
</g>
<g>
</g>
<g>
</g>
<g>
</g>
</svg>
